%TF.GenerationSoftware,Altium Limited,Altium Designer,20.1.8 (145)*%
G04 Layer_Physical_Order=1*
G04 Layer_Color=255*
%FSLAX26Y26*%
%MOIN*%
%TF.SameCoordinates,258749AC-D279-41F5-9C08-1D7B8F262F78*%
%TF.FilePolarity,Positive*%
%TF.FileFunction,Copper,L1,Top,Signal*%
%TF.Part,Single*%
G01*
G75*
%TA.AperFunction,NonConductor*%
%ADD10C,0.078740*%
%ADD11C,0.039370*%
%TA.AperFunction,Conductor*%
%ADD12C,0.010000*%
G36*
X137500Y167500D02*
X177500D01*
Y117500D01*
X182500Y112500D01*
X162500Y92500D01*
X147500D01*
X117500Y122500D01*
X112500D01*
Y142500D01*
X112119Y142881D01*
X114033Y147500D01*
X127500D01*
Y137500D01*
X152500Y112500D01*
X157500D01*
X167500Y122500D01*
Y152500D01*
X162500Y157500D01*
X157500Y152500D01*
X147500D01*
Y147500D01*
X142500Y142500D01*
X132500Y152500D01*
X122500D01*
X107500Y167500D01*
Y187500D01*
X112500Y192500D01*
X137500Y167500D01*
D02*
G37*
D10*
X462360Y313861D02*
G03*
X515000Y220000I-57359J-93861D01*
G01*
D11*
X264842Y50000D02*
G03*
X264842Y50000I-9842J0D01*
G01*
D12*
X200000Y191242D02*
Y295000D01*
X119654Y250346D02*
X185000Y185000D01*
X102750Y205000D02*
X215000D01*
X106498Y186498D02*
X175000Y255000D01*
%TF.MD5,012ee410945fc881e47886a97048f6e4*%
M02*
